<mxfile host="Electron" modified="2023-12-03T16:14:22.816Z" agent="Mozilla/5.0 (Windows NT 10.0; Win64; x64) AppleWebKit/537.36 (KHTML, like Gecko) draw.io/22.1.2 Chrome/114.0.5735.289 Electron/25.9.4 Safari/537.36" etag="xQhQGx8HUREoT7VtG0v2" version="22.1.2" type="device">
  <diagram name="Page-1" id="kqDWHpFJoExWgKqT9MI2">
    <mxGraphModel dx="1418" dy="838" grid="1" gridSize="10" guides="1" tooltips="1" connect="1" arrows="1" fold="1" page="1" pageScale="1" pageWidth="1169" pageHeight="827" math="0" shadow="0">
      <root>
        <mxCell id="0" />
        <mxCell id="1" parent="0" />
        <mxCell id="7l193V6ySXUp-4f2ppnQ-2" value="...&lt;br&gt;Hold Shift + RMB to show Help.&lt;br&gt;Click to Update." style="rounded=0;whiteSpace=wrap;html=1;fontFamily=Inconsolata;align=left;verticalAlign=bottom;fillColor=#f5f5f5;fontColor=#333333;strokeColor=#666666;" parent="1" vertex="1">
          <mxGeometry x="300" y="310" width="190" height="70" as="geometry" />
        </mxCell>
        <mxCell id="7l193V6ySXUp-4f2ppnQ-3" value="&lt;i&gt;Help&lt;/i&gt;" style="rounded=0;whiteSpace=wrap;html=1;fontFamily=Inconsolata;align=left;verticalAlign=top;fillColor=#f5f5f5;fontColor=#333333;strokeColor=#666666;" parent="1" vertex="1">
          <mxGeometry x="630" y="310" width="170" height="70" as="geometry" />
        </mxCell>
        <mxCell id="7l193V6ySXUp-4f2ppnQ-4" value="" style="endArrow=classic;html=1;rounded=0;dashed=1;exitX=1;exitY=0.5;exitDx=0;exitDy=0;fontFamily=Inconsolata;" parent="1" source="7l193V6ySXUp-4f2ppnQ-2" target="7l193V6ySXUp-4f2ppnQ-3" edge="1">
          <mxGeometry width="50" height="50" relative="1" as="geometry">
            <mxPoint x="1090" y="330" as="sourcePoint" />
            <mxPoint x="560" y="320" as="targetPoint" />
          </mxGeometry>
        </mxCell>
        <mxCell id="7l193V6ySXUp-4f2ppnQ-5" value="Hold Shift + RMB&lt;br&gt;on ControlRegion" style="text;html=1;strokeColor=none;fillColor=none;align=center;verticalAlign=middle;whiteSpace=wrap;rounded=0;fontFamily=Inconsolata;" parent="1" vertex="1">
          <mxGeometry x="510" y="300" width="100" height="40" as="geometry" />
        </mxCell>
      </root>
    </mxGraphModel>
  </diagram>
</mxfile>
